0
SECTION
2
HEADER
9
$INSUNITS
70
4
9
$ACADVER
1
AC1014
9
$HANDSEED
5
FFFF
0
ENDSEC
0
SECTION
2
TABLES
0
TABLE
2
VPORT
5
8
100
AcDbSymbolTable
0
ENDTAB
0
TABLE
2
LTYPE
5
5
100
AcDbSymbolTable
0
LTYPE
5
14
100
AcDbSymbolTableRecord
100
AcDbLinetypeTableRecord
2
BYBLOCK
70
0
0
LTYPE
5
15
100
AcDbSymbolTableRecord
100
AcDbLinetypeTableRecord
2
BYLAYER
70
0
0
ENDTAB
0
TABLE
2
LAYER
5
2
100
AcDbSymbolTable
70
2
0
LAYER
5
50
100
AcDbSymbolTableRecord
100
AcDbLayerTableRecord
2
0
70
0
6
CONTINUOUS
0
ENDTAB
0
TABLE
2
STYLE
5
3
100
AcDbSymbolTable
70
1
0
STYLE
5
11
100
AcDbSymbolTableRecord
100
AcDbTextStyleTableRecord
2
STANDARD
70
0
0
ENDTAB
0
TABLE
2
VIEW
5
6
100
AcDbSymbolTable
70
0
0
ENDTAB
0
TABLE
2
UCS
5
7
100
AcDbSymbolTable
70
0
0
ENDTAB
0
TABLE
2
APPID
5
9
100
AcDbSymbolTable
70
2
0
APPID
5
12
100
AcDbSymbolTableRecord
100
AcDbRegAppTableRecord
2
ACAD
70
0
0
ENDTAB
0
TABLE
2
DIMSTYLE
5
A
100
AcDbSymbolTable
70
1
0
ENDTAB
0
TABLE
2
BLOCK_RECORD
5
1
100
AcDbSymbolTable
70
1
0
BLOCK_RECORD
5
1F
100
AcDbSymbolTableRecord
100
AcDbBlockTableRecord
2
*MODEL_SPACE
0
BLOCK_RECORD
5
1B
100
AcDbSymbolTableRecord
100
AcDbBlockTableRecord
2
*PAPER_SPACE
0
ENDTAB
0
ENDSEC
0
SECTION
2
BLOCKS
0
BLOCK
5
20
100
AcDbEntity
100
AcDbBlockBegin
2
*MODEL_SPACE
0
ENDBLK
5
21
100
AcDbEntity
100
AcDbBlockEnd
0
BLOCK
5
1C
100
AcDbEntity
100
AcDbBlockBegin
2
*PAPER_SPACE
0
ENDBLK
5
1D
100
AcDbEntity
100
AcDbBlockEnd
0
ENDSEC
0
SECTION
2
ENTITIES
0
LWPOLYLINE
5
100
100
AcDbEntity
8
0
100
AcDbPolyline
90
8
70
1
43
0.0
10
173.4155029064689
20
133.6183917914949
10
44.015477611340081
20
133.61839179149487
42
0.4142135623730947
10
29.11547761134015
20
118.71839179149492
10
29.11547761134015
20
31.789509850944469
42
0.41421234786655792
10
44.016877818131135
20
16.88804785371758
42
2.6321843392106869e-05
10
173.41700990412858
20
16.89432338539525
42
0.4141839392320078
10
188.31550290657361
20
31.794323309493908
10
188.31550290646945
20
118.71839179151279
42
0.41421356237274409
0
LWPOLYLINE
5
101
100
AcDbEntity
8
0
100
AcDbPolyline
90
4
70
1
43
0.0
10
80.315477611340157
20
146.11839179149487
10
70.315477611340157
20
146.11839179149487
10
70.315477611340157
20
136.11839179149487
10
80.315477611340157
20
136.11839179149487
0
LWPOLYLINE
5
102
100
AcDbEntity
8
0
100
AcDbPolyline
90
4
70
1
43
0.0
10
97.01547761134016
20
146.11839179149487
10
87.01547761134016
20
146.11839179149487
10
87.01547761134016
20
136.11839179149487
10
97.01547761134016
20
136.11839179149487
0
LWPOLYLINE
5
103
100
AcDbEntity
8
0
100
AcDbPolyline
90
4
70
1
43
0.0
10
113.71547761134018
20
146.11839179149487
10
103.71547761134018
20
146.11839179149487
10
103.71547761134018
20
136.11839179149487
10
113.71547761134018
20
136.11839179149487
0
LWPOLYLINE
5
104
100
AcDbEntity
8
0
100
AcDbPolyline
90
4
70
1
43
0.0
10
130.41547761134018
20
146.11839179149487
10
120.41547761134018
20
146.11839179149487
10
120.41547761134018
20
136.11839179149487
10
130.41547761134018
20
136.11839179149487
0
LWPOLYLINE
5
105
100
AcDbEntity
8
0
100
AcDbPolyline
90
4
70
1
43
0.0
10
147.11547761134017
20
146.11839179149487
10
137.11547761134017
20
146.11839179149487
10
137.11547761134017
20
136.11839179149487
10
147.11547761134017
20
136.11839179149487
0
LWPOLYLINE
5
106
100
AcDbEntity
8
0
100
AcDbPolyline
90
4
70
1
43
0.0
10
120.41547761134018
20
14.388391791494861
10
120.41547761134018
20
4.3883917914948611
10
130.41547761134018
20
4.3883917914948611
10
130.41547761134018
20
14.388391791494861
0
LWPOLYLINE
5
107
100
AcDbEntity
8
0
100
AcDbPolyline
90
4
70
1
43
0.0
10
87.01547761134016
20
14.388391791494861
10
87.01547761134016
20
4.3883917914948611
10
97.01547761134016
20
4.3883917914948611
10
97.01547761134016
20
14.388391791494861
0
LWPOLYLINE
5
108
100
AcDbEntity
8
0
100
AcDbPolyline
90
4
70
1
43
0.0
10
137.11547761134017
20
14.388391791494861
10
137.11547761134017
20
4.3883917914948611
10
147.11547761134017
20
4.3883917914948611
10
147.11547761134017
20
14.388391791494861
0
LWPOLYLINE
5
109
100
AcDbEntity
8
0
100
AcDbPolyline
90
4
70
1
43
0.0
10
103.71547761134018
20
14.388391791494861
10
103.71547761134018
20
4.3883917914948611
10
113.71547761134018
20
4.3883917914948611
10
113.71547761134018
20
14.388391791494861
0
LWPOLYLINE
5
110
100
AcDbEntity
8
0
100
AcDbPolyline
90
4
70
1
43
0.0
10
70.315477611340157
20
4.3883917914948611
10
80.315477611340157
20
4.3883917914948611
10
80.315477611340157
20
14.388391791494861
10
70.315477611340157
20
14.388391791494861
0
LWPOLYLINE
5
111
100
AcDbEntity
8
0
100
AcDbPolyline
90
4
70
1
43
0.0
10
190.81550290646899
20
95.5883917914949
10
190.81550290646899
20
85.5883917914949
10
200.81550290646899
20
85.5883917914949
10
200.81550290646899
20
95.5883917914949
0
LWPOLYLINE
5
112
100
AcDbEntity
8
0
100
AcDbPolyline
90
4
70
1
43
0.0
10
200.81550290646899
20
70.088391791494885
10
200.81550290646899
20
80.0883917914949
10
190.81550290646899
20
80.0883917914949
10
190.81550290646899
20
70.088391791494885
0
LWPOLYLINE
5
113
100
AcDbEntity
8
0
100
AcDbPolyline
90
4
70
1
43
0.0
10
200.81550290646899
20
49.088391791494878
10
190.81550290646899
20
49.088391791494878
10
190.81550290646899
20
39.088391791494878
10
200.81550290646899
20
39.088391791494878
0
LWPOLYLINE
5
114
100
AcDbEntity
8
0
100
AcDbPolyline
90
4
70
1
43
0.0
10
190.81550290646899
20
101.08839179149491
10
200.81550290646899
20
101.08839179149491
10
200.81550290646899
20
111.08839179149491
10
190.81550290646899
20
111.08839179149491
0
LWPOLYLINE
5
115
100
AcDbEntity
8
0
100
AcDbPolyline
90
4
70
1
43
0.0
10
190.81550290646899
20
64.588391791494885
10
190.81550290646899
20
54.588391791494864
10
200.81550290646899
20
54.588391791494864
10
200.81550290646899
20
64.588391791494885
0
LWPOLYLINE
5
116
100
AcDbEntity
8
0
100
AcDbPolyline
90
4
70
1
43
0.0
10
26.615477611340186
20
80.0883917914949
10
16.615477611340186
20
80.0883917914949
10
16.615477611340204
20
70.088391791494885
10
26.615477611340221
20
70.088391791494885
0
LWPOLYLINE
5
117
100
AcDbEntity
8
0
100
AcDbPolyline
90
4
70
1
43
0.0
10
16.615477611340204
20
64.588391791494885
10
16.615477611340204
20
54.588391791494864
10
26.615477611340221
20
54.588391791494864
10
26.615477611340221
20
64.588391791494885
0
LWPOLYLINE
5
118
100
AcDbEntity
8
0
100
AcDbPolyline
90
4
70
1
43
0.0
10
16.615477611340186
20
101.08839179149491
10
26.615477611340186
20
101.08839179149491
10
26.615477611340186
20
111.08839179149491
10
16.615477611340186
20
111.08839179149491
0
LWPOLYLINE
5
119
100
AcDbEntity
8
0
100
AcDbPolyline
90
4
70
1
43
0.0
10
16.615477611340186
20
95.5883917914949
10
16.615477611340186
20
85.5883917914949
10
26.615477611340186
20
85.5883917914949
10
26.615477611340186
20
95.5883917914949
0
LWPOLYLINE
5
120
100
AcDbEntity
8
0
100
AcDbPolyline
90
4
70
1
43
0.0
10
26.615477611340221
20
49.088391791494878
10
16.615477611340204
20
49.088391791494878
10
16.615477611340204
20
39.088391791494878
10
26.615477611340221
20
39.088391791494878
0
LWPOLYLINE
5
121
100
AcDbEntity
8
0
100
AcDbPolyline
90
4
70
1
43
0.0
10
53.615477611340161
20
4.3883917914948611
10
63.615477611340161
20
4.3883917914948611
10
63.615477611340161
20
14.388391791494861
10
53.615477611340161
20
14.388391791494861
0
LWPOLYLINE
5
122
100
AcDbEntity
8
0
100
AcDbPolyline
90
4
70
1
43
0.0
10
163.81547761134016
20
14.388391791494861
10
153.81547761134019
20
14.388391791494861
10
153.81547761134019
20
4.3883917914948611
10
163.81547761134016
20
4.3883917914948611
0
LWPOLYLINE
5
123
100
AcDbEntity
8
0
100
AcDbPolyline
90
4
70
1
43
0.0
10
53.615477611340161
20
136.11839179149487
10
63.615477611340161
20
136.11839179149487
10
63.615477611340161
20
146.11839179149487
10
53.615477611340161
20
146.11839179149487
0
LWPOLYLINE
5
124
100
AcDbEntity
8
0
100
AcDbPolyline
90
4
70
1
43
0.0
10
153.81547761134019
20
136.11839179149487
10
163.81547761134016
20
136.11839179149487
10
163.81547761134016
20
146.11839179149487
10
153.81547761134019
20
146.11839179149487
0
CIRCLE
5
125
100
AcDbEntity
8
0
100
AcDbCircle
10
18.906257681735418
20
6.6714136156715771
30
0
40
1.6000000000000003
210
0
220
0
230
1
0
LINE
5
126
100
AcDbEntity
8
0
100
AcDbLine
10
17.923769331745625
20
138.85502896018357
30
0
11
14.131905327693737
21
138.85214370251305
31
0
0
LINE
5
127
100
AcDbEntity
8
0
100
AcDbLine
10
108.72006884006566
20
148.61839179149487
30
0
11
108.71549025890452
21
1.8883917914948563
31
0
0
LINE
5
128
100
AcDbEntity
8
0
100
AcDbLine
10
23.905457524978896
20
5.8148279692168749
30
0
11
23.901786266028694
21
1.884663416404313
31
0
0
LINE
5
129
100
AcDbEntity
8
0
100
AcDbLine
10
203.31550290646891
20
75.258110591818138
30
0
11
14.11547761134015
21
75.253532010657025
31
0
0
LINE
5
130
100
AcDbEntity
8
0
100
AcDbLine
10
193.52576786967657
20
5.8095351159660602
30
0
11
193.52919385393329
21
1.8793703416902474
31
0
0
ARC
5
131
100
AcDbEntity
8
0
100
AcDbCircle
10
199.52069875010639
20
144.84936050762184
30
0
40
6.000000000000016
210
0
220
0
230
1
100
AcDbArc
50
180.05763531005977
51
269.95282749215846
0
CIRCLE
5
132
100
AcDbEntity
8
0
100
AcDbCircle
10
-18.915153996179438
20
6.6800223677452202
30
2.9665258550727184e-15
40
1.6000000000000019
210
0
220
4.4408920985006252e-16
230
-1
0
LINE
5
133
100
AcDbEntity
8
0
100
AcDbLine
10
17.912754301882195
20
11.672341670496337
30
0
11
14.12089085448777
21
11.67588373913803
31
0
0
ARC
5
134
100
AcDbEntity
8
0
100
AcDbCircle
10
17.919203888208308
20
144.85502722324378
30
0
40
6.0000000000000053
210
0
220
0
230
1
100
AcDbArc
50
270.04359677858918
51
359.93878896069219
0
LINE
5
135
100
AcDbEntity
8
0
100
AcDbLine
10
23.917487079260162
20
144.71150454229951
30
0
11
23.914496587229053
21
148.64166967207257
31
0
0
LINE
5
136
100
AcDbEntity
8
0
100
AcDbLine
10
199.51575885719492
20
138.84936254116732
30
0
11
203.30762267379865
21
138.84624063991109
31
0
0
CIRCLE
5
137
100
AcDbEntity
8
0
100
AcDbCircle
10
18.906257681735418
20
6.6714136156715771
30
0
40
1.6000000000000003
210
0
220
0
230
1
0
LINE
5
138
100
AcDbEntity
8
0
100
AcDbLine
10
199.51883663827425
20
11.666674811726256
30
0
11
203.31070029933866
21
11.669980236804474
31
0
0
ARC
5
139
100
AcDbEntity
8
0
100
AcDbCircle
10
199.52406692731063
20
5.6666770913869691
30
0
40
6.0000000000000044
210
0
220
0
230
1
100
AcDbArc
50
90.049945587561822
51
179.94513776966215
0
LINE
5
140
100
AcDbEntity
8
0
100
AcDbLine
10
19.912148329629503
20
1.888390230837973
30
0
11
19.919239765216368
21
1.8883902308379732
31
0
0
LINE
5
141
100
AcDbEntity
8
0
100
AcDbLine
10
193.52240661373642
20
144.70621216930545
30
0
11
193.52564238048404
21
148.63637710479355
31
0
0
ARC
5
142
100
AcDbEntity
8
0
100
AcDbCircle
10
17.907149563506803
20
5.6723442882545916
30
0
40
6.0000000000000062
210
0
220
-0
230
1
100
AcDbArc
50
0.051286501079313589
51
89.946478683185504
0
CIRCLE
5
143
100
AcDbEntity
8
0
100
AcDbCircle
10
41.612289747738771
20
141.12000313539164
30
0
40
1.6000000000000005
210
0
220
0
230
1
0
CIRCLE
5
144
100
AcDbEntity
8
0
100
AcDbCircle
10
175.81278261420169
20
141.13068596379139
30
0
40
1.6000000000000005
210
0
220
0
230
1
0
CIRCLE
5
145
100
AcDbEntity
8
0
100
AcDbCircle
10
41.615477611340161
20
9.3883917914948611
30
0
40
1.6000000000000005
210
0
220
0
230
1
0
CIRCLE
5
146
100
AcDbEntity
8
0
100
AcDbCircle
10
175.815970837663
20
9.3842041826207279
30
0
40
1.6000000000000005
210
0
220
0
230
1
0
LINE
5
147
100
AcDbEntity
8
0
100
AcDbLine
10
14.12089085448777
20
11.67588373913803
30
0
11
14.131905327693737
21
138.85214370251305
31
0
0
LINE
5
148
100
AcDbEntity
8
0
100
AcDbLine
10
23.914496587229053
20
148.64166967207257
30
0
11
193.52564238048404
21
148.63637710479355
31
0
0
LINE
5
149
100
AcDbEntity
8
0
100
AcDbLine
10
203.30762267379865
20
138.84624063991109
30
0
11
203.31070029933866
21
11.669980236804474
31
0
0
LINE
5
150
100
AcDbEntity
8
0
100
AcDbLine
10
193.52919385393329
20
1.8793703416902474
30
0
11
23.901786266028694
21
1.884663416404313
31
0
0
ENDSEC
0
SECTION
2
OBJECTS
0
DICTIONARY
5
C
100
AcDbDictionary
3
ACAD_GROUP
350
D
3
ACAD_MLINESTYLE
350
17
0
DICTIONARY
5
D
100
AcDbDictionary
0
DICTIONARY
5
1A
330
C
100
AcDbDictionary
0
DICTIONARY
5
17
100
AcDbDictionary
0
ENDSEC
0
EOF
