0
SECTION
2
HEADER
9
$INSUNITS
70
4
9
$ACADVER
1
AC1014
9
$HANDSEED
5
FFFF
0
ENDSEC
0
SECTION
2
TABLES
0
TABLE
2
VPORT
5
8
100
AcDbSymbolTable
0
ENDTAB
0
TABLE
2
LTYPE
5
5
100
AcDbSymbolTable
0
LTYPE
5
14
100
AcDbSymbolTableRecord
100
AcDbLinetypeTableRecord
2
BYBLOCK
70
0
0
LTYPE
5
15
100
AcDbSymbolTableRecord
100
AcDbLinetypeTableRecord
2
BYLAYER
70
0
0
ENDTAB
0
TABLE
2
LAYER
5
2
100
AcDbSymbolTable
70
2
0
LAYER
5
50
100
AcDbSymbolTableRecord
100
AcDbLayerTableRecord
2
0
70
0
6
CONTINUOUS
0
ENDTAB
0
TABLE
2
STYLE
5
3
100
AcDbSymbolTable
70
1
0
STYLE
5
11
100
AcDbSymbolTableRecord
100
AcDbTextStyleTableRecord
2
STANDARD
70
0
0
ENDTAB
0
TABLE
2
VIEW
5
6
100
AcDbSymbolTable
70
0
0
ENDTAB
0
TABLE
2
UCS
5
7
100
AcDbSymbolTable
70
0
0
ENDTAB
0
TABLE
2
APPID
5
9
100
AcDbSymbolTable
70
2
0
APPID
5
12
100
AcDbSymbolTableRecord
100
AcDbRegAppTableRecord
2
ACAD
70
0
0
ENDTAB
0
TABLE
2
DIMSTYLE
5
A
100
AcDbSymbolTable
70
1
0
ENDTAB
0
TABLE
2
BLOCK_RECORD
5
1
100
AcDbSymbolTable
70
1
0
BLOCK_RECORD
5
1F
100
AcDbSymbolTableRecord
100
AcDbBlockTableRecord
2
*MODEL_SPACE
0
BLOCK_RECORD
5
1B
100
AcDbSymbolTableRecord
100
AcDbBlockTableRecord
2
*PAPER_SPACE
0
ENDTAB
0
ENDSEC
0
SECTION
2
BLOCKS
0
BLOCK
5
20
100
AcDbEntity
100
AcDbBlockBegin
2
*MODEL_SPACE
0
ENDBLK
5
21
100
AcDbEntity
100
AcDbBlockEnd
0
BLOCK
5
1C
100
AcDbEntity
100
AcDbBlockBegin
2
*PAPER_SPACE
0
ENDBLK
5
1D
100
AcDbEntity
100
AcDbBlockEnd
0
ENDSEC
0
SECTION
2
ENTITIES
0
LWPOLYLINE
5
100
100
AcDbEntity
8
0
100
AcDbPolyline
90
8
70
1
43
0.0
10
19.910197173015867
20
148.61839179149487
10
197.52994050711547
20
148.61839179149487
42
-0.41421356237309503
10
203.31550290646891
20
142.83282939214143
10
203.31550290646891
20
7.6833917914948593
42
-0.41421356237309215
10
197.52050290646892
20
1.88839179149485
10
19.910477611340148
20
1.8883917914948634
42
-0.4142135623730957
10
14.11547761134015
20
7.6833917914948557
10
14.115477611340159
20
142.82367222981918
42
-0.41421356237309503
0
LWPOLYLINE
5
101
100
AcDbEntity
8
0
100
AcDbPolyline
90
8
70
1
43
0.0
10
173.4155029064689
20
133.6183917914949
10
44.015477611340081
20
133.61839179149487
42
0.4142135623730947
10
29.11547761134015
20
118.71839179149492
10
29.11547761134015
20
31.789509850944469
42
0.41421234786655792
10
44.016877818131135
20
16.88804785371758
42
2.6321843392106869e-05
10
173.41700990412858
20
16.89432338539525
42
0.4141839392320078
10
188.31550290657361
20
31.794323309493908
10
188.31550290646945
20
118.71839179151279
42
0.41421356237274409
0
LWPOLYLINE
5
102
100
AcDbEntity
8
0
100
AcDbPolyline
90
4
70
1
43
0.0
10
80.315477611340157
20
146.11839179149487
10
70.315477611340157
20
146.11839179149487
10
70.315477611340157
20
136.11839179149487
10
80.315477611340157
20
136.11839179149487
0
LWPOLYLINE
5
103
100
AcDbEntity
8
0
100
AcDbPolyline
90
4
70
1
43
0.0
10
97.01547761134016
20
146.11839179149487
10
87.01547761134016
20
146.11839179149487
10
87.01547761134016
20
136.11839179149487
10
97.01547761134016
20
136.11839179149487
0
LWPOLYLINE
5
104
100
AcDbEntity
8
0
100
AcDbPolyline
90
4
70
1
43
0.0
10
113.71547761134018
20
146.11839179149487
10
103.71547761134018
20
146.11839179149487
10
103.71547761134018
20
136.11839179149487
10
113.71547761134018
20
136.11839179149487
0
LWPOLYLINE
5
105
100
AcDbEntity
8
0
100
AcDbPolyline
90
4
70
1
43
0.0
10
130.41547761134018
20
146.11839179149487
10
120.41547761134018
20
146.11839179149487
10
120.41547761134018
20
136.11839179149487
10
130.41547761134018
20
136.11839179149487
0
LWPOLYLINE
5
106
100
AcDbEntity
8
0
100
AcDbPolyline
90
4
70
1
43
0.0
10
147.11547761134017
20
146.11839179149487
10
137.11547761134017
20
146.11839179149487
10
137.11547761134017
20
136.11839179149487
10
147.11547761134017
20
136.11839179149487
0
LWPOLYLINE
5
107
100
AcDbEntity
8
0
100
AcDbPolyline
90
4
70
1
43
0.0
10
120.41547761134018
20
14.388391791494861
10
120.41547761134018
20
4.3883917914948611
10
130.41547761134018
20
4.3883917914948611
10
130.41547761134018
20
14.388391791494861
0
LWPOLYLINE
5
108
100
AcDbEntity
8
0
100
AcDbPolyline
90
4
70
1
43
0.0
10
87.01547761134016
20
14.388391791494861
10
87.01547761134016
20
4.3883917914948611
10
97.01547761134016
20
4.3883917914948611
10
97.01547761134016
20
14.388391791494861
0
LWPOLYLINE
5
109
100
AcDbEntity
8
0
100
AcDbPolyline
90
4
70
1
43
0.0
10
137.11547761134017
20
14.388391791494861
10
137.11547761134017
20
4.3883917914948611
10
147.11547761134017
20
4.3883917914948611
10
147.11547761134017
20
14.388391791494861
0
LWPOLYLINE
5
110
100
AcDbEntity
8
0
100
AcDbPolyline
90
4
70
1
43
0.0
10
103.71547761134018
20
14.388391791494861
10
103.71547761134018
20
4.3883917914948611
10
113.71547761134018
20
4.3883917914948611
10
113.71547761134018
20
14.388391791494861
0
LWPOLYLINE
5
111
100
AcDbEntity
8
0
100
AcDbPolyline
90
4
70
1
43
0.0
10
70.315477611340157
20
4.3883917914948611
10
80.315477611340157
20
4.3883917914948611
10
80.315477611340157
20
14.388391791494861
10
70.315477611340157
20
14.388391791494861
0
LWPOLYLINE
5
112
100
AcDbEntity
8
0
100
AcDbPolyline
90
4
70
1
43
0.0
10
190.81550290646899
20
95.5883917914949
10
190.81550290646899
20
85.5883917914949
10
200.81550290646899
20
85.5883917914949
10
200.81550290646899
20
95.5883917914949
0
LWPOLYLINE
5
113
100
AcDbEntity
8
0
100
AcDbPolyline
90
4
70
1
43
0.0
10
200.81550290646899
20
70.088391791494885
10
200.81550290646899
20
80.0883917914949
10
190.81550290646899
20
80.0883917914949
10
190.81550290646899
20
70.088391791494885
0
LWPOLYLINE
5
114
100
AcDbEntity
8
0
100
AcDbPolyline
90
4
70
1
43
0.0
10
200.81550290646899
20
49.088391791494878
10
190.81550290646899
20
49.088391791494878
10
190.81550290646899
20
39.088391791494878
10
200.81550290646899
20
39.088391791494878
0
LWPOLYLINE
5
115
100
AcDbEntity
8
0
100
AcDbPolyline
90
4
70
1
43
0.0
10
190.81550290646899
20
101.08839179149491
10
200.81550290646899
20
101.08839179149491
10
200.81550290646899
20
111.08839179149491
10
190.81550290646899
20
111.08839179149491
0
LWPOLYLINE
5
116
100
AcDbEntity
8
0
100
AcDbPolyline
90
4
70
1
43
0.0
10
190.81550290646899
20
64.588391791494885
10
190.81550290646899
20
54.588391791494864
10
200.81550290646899
20
54.588391791494864
10
200.81550290646899
20
64.588391791494885
0
LWPOLYLINE
5
117
100
AcDbEntity
8
0
100
AcDbPolyline
90
4
70
1
43
0.0
10
26.615477611340186
20
80.0883917914949
10
16.615477611340186
20
80.0883917914949
10
16.615477611340204
20
70.088391791494885
10
26.615477611340221
20
70.088391791494885
0
LWPOLYLINE
5
118
100
AcDbEntity
8
0
100
AcDbPolyline
90
4
70
1
43
0.0
10
16.615477611340204
20
64.588391791494885
10
16.615477611340204
20
54.588391791494864
10
26.615477611340221
20
54.588391791494864
10
26.615477611340221
20
64.588391791494885
0
LWPOLYLINE
5
119
100
AcDbEntity
8
0
100
AcDbPolyline
90
4
70
1
43
0.0
10
16.615477611340186
20
101.08839179149491
10
26.615477611340186
20
101.08839179149491
10
26.615477611340186
20
111.08839179149491
10
16.615477611340186
20
111.08839179149491
0
LWPOLYLINE
5
120
100
AcDbEntity
8
0
100
AcDbPolyline
90
4
70
1
43
0.0
10
16.615477611340186
20
95.5883917914949
10
16.615477611340186
20
85.5883917914949
10
26.615477611340186
20
85.5883917914949
10
26.615477611340186
20
95.5883917914949
0
LWPOLYLINE
5
121
100
AcDbEntity
8
0
100
AcDbPolyline
90
4
70
1
43
0.0
10
26.615477611340221
20
49.088391791494878
10
16.615477611340204
20
49.088391791494878
10
16.615477611340204
20
39.088391791494878
10
26.615477611340221
20
39.088391791494878
0
LWPOLYLINE
5
122
100
AcDbEntity
8
0
100
AcDbPolyline
90
4
70
1
43
0.0
10
53.615477611340161
20
4.3883917914948611
10
63.615477611340161
20
4.3883917914948611
10
63.615477611340161
20
14.388391791494861
10
53.615477611340161
20
14.388391791494861
0
LWPOLYLINE
5
123
100
AcDbEntity
8
0
100
AcDbPolyline
90
4
70
1
43
0.0
10
163.81547761134016
20
14.388391791494861
10
153.81547761134019
20
14.388391791494861
10
153.81547761134019
20
4.3883917914948611
10
163.81547761134016
20
4.3883917914948611
0
LWPOLYLINE
5
124
100
AcDbEntity
8
0
100
AcDbPolyline
90
4
70
1
43
0.0
10
53.615477611340161
20
136.11839179149487
10
63.615477611340161
20
136.11839179149487
10
63.615477611340161
20
146.11839179149487
10
53.615477611340161
20
146.11839179149487
0
LWPOLYLINE
5
125
100
AcDbEntity
8
0
100
AcDbPolyline
90
4
70
1
43
0.0
10
153.81547761134019
20
136.11839179149487
10
163.81547761134016
20
136.11839179149487
10
163.81547761134016
20
146.11839179149487
10
153.81547761134019
20
146.11839179149487
0
CIRCLE
5
126
100
AcDbEntity
8
0
100
AcDbCircle
10
18.908474424696049
20
143.82565697767737
30
0
40
1.6000000000000019
210
0
220
0
230
1
0
CIRCLE
5
127
100
AcDbEntity
8
0
100
AcDbCircle
10
198.51550290646895
20
6.6844361096929061
30
0
40
1.5999999999999894
210
0
220
0
230
1
0
CIRCLE
5
128
100
AcDbEntity
8
0
100
AcDbCircle
10
18.906257681735418
20
6.6714136156715771
30
0
40
1.6000000000000003
210
0
220
0
230
1
0
CIRCLE
5
129
100
AcDbEntity
8
0
100
AcDbCircle
10
198.52410234013337
20
143.83529069833023
30
0
40
1.600000000000007
210
0
220
0
230
1
0
LINE
5
130
100
AcDbEntity
8
0
100
AcDbLine
10
108.72006884006566
20
148.61839179149487
30
0
11
108.71549025890452
21
1.8883917914948563
31
0
0
LINE
5
131
100
AcDbEntity
8
0
100
AcDbLine
10
203.31550290646891
20
75.258110591818138
30
0
11
14.11547761134015
21
75.253532010657025
31
0
0
CIRCLE
5
132
100
AcDbEntity
8
0
100
AcDbCircle
10
41.615477611340161
20
9.3883917914948611
30
0
40
1.6000000000000005
210
0
220
0
230
1
0
CIRCLE
5
133
100
AcDbEntity
8
0
100
AcDbCircle
10
175.815970837663
20
9.3842041826207279
30
0
40
1.6000000000000005
210
0
220
0
230
1
0
CIRCLE
5
134
100
AcDbEntity
8
0
100
AcDbCircle
10
175.81278261420169
20
141.13068596379139
30
0
40
1.6000000000000005
210
0
220
0
230
1
0
CIRCLE
5
135
100
AcDbEntity
8
0
100
AcDbCircle
10
41.612289747738771
20
141.12000313539164
30
0
40
1.6000000000000005
210
0
220
0
230
1
0
ENDSEC
0
SECTION
2
OBJECTS
0
DICTIONARY
5
C
100
AcDbDictionary
3
ACAD_GROUP
350
D
3
ACAD_MLINESTYLE
350
17
0
DICTIONARY
5
D
100
AcDbDictionary
0
DICTIONARY
5
1A
330
C
100
AcDbDictionary
0
DICTIONARY
5
17
100
AcDbDictionary
0
ENDSEC
0
EOF
