0
SECTION
2
HEADER
9
$INSUNITS
70
4
9
$ACADVER
1
AC1014
9
$HANDSEED
5
FFFF
0
ENDSEC
0
SECTION
2
TABLES
0
TABLE
2
VPORT
5
8
100
AcDbSymbolTable
0
ENDTAB
0
TABLE
2
LTYPE
5
5
100
AcDbSymbolTable
0
LTYPE
5
14
100
AcDbSymbolTableRecord
100
AcDbLinetypeTableRecord
2
BYBLOCK
70
0
0
LTYPE
5
15
100
AcDbSymbolTableRecord
100
AcDbLinetypeTableRecord
2
BYLAYER
70
0
0
ENDTAB
0
TABLE
2
LAYER
5
2
100
AcDbSymbolTable
70
2
0
LAYER
5
50
100
AcDbSymbolTableRecord
100
AcDbLayerTableRecord
2
0
70
0
6
CONTINUOUS
0
ENDTAB
0
TABLE
2
STYLE
5
3
100
AcDbSymbolTable
70
1
0
STYLE
5
11
100
AcDbSymbolTableRecord
100
AcDbTextStyleTableRecord
2
STANDARD
70
0
0
ENDTAB
0
TABLE
2
VIEW
5
6
100
AcDbSymbolTable
70
0
0
ENDTAB
0
TABLE
2
UCS
5
7
100
AcDbSymbolTable
70
0
0
ENDTAB
0
TABLE
2
APPID
5
9
100
AcDbSymbolTable
70
2
0
APPID
5
12
100
AcDbSymbolTableRecord
100
AcDbRegAppTableRecord
2
ACAD
70
0
0
ENDTAB
0
TABLE
2
DIMSTYLE
5
A
100
AcDbSymbolTable
70
1
0
ENDTAB
0
TABLE
2
BLOCK_RECORD
5
1
100
AcDbSymbolTable
70
1
0
BLOCK_RECORD
5
1F
100
AcDbSymbolTableRecord
100
AcDbBlockTableRecord
2
*MODEL_SPACE
0
BLOCK_RECORD
5
1B
100
AcDbSymbolTableRecord
100
AcDbBlockTableRecord
2
*PAPER_SPACE
0
ENDTAB
0
ENDSEC
0
SECTION
2
BLOCKS
0
BLOCK
5
20
100
AcDbEntity
100
AcDbBlockBegin
2
*MODEL_SPACE
0
ENDBLK
5
21
100
AcDbEntity
100
AcDbBlockEnd
0
BLOCK
5
1C
100
AcDbEntity
100
AcDbBlockBegin
2
*PAPER_SPACE
0
ENDBLK
5
1D
100
AcDbEntity
100
AcDbBlockEnd
0
ENDSEC
0
SECTION
2
ENTITIES
0
CIRCLE
5
100
100
AcDbEntity
8
0
100
AcDbCircle
10
198.52410234013337
20
143.83529069833023
30
0
40
1.600000000000007
210
0
220
0
230
1
0
LWPOLYLINE
5
101
100
AcDbEntity
8
0
100
AcDbPolyline
90
8
70
1
43
0.0
10
29.115477611208831
20
118.71839179151193
42
-0.41421356237646184
10
44.015477611228455
20
133.61839179130334
10
173.41550290657062
20
133.61839179156473
42
-0.41421356236862722
10
188.31550290671143
20
118.71839179164417
10
188.31550290688708
20
31.794323309521154
42
-0.41418393923341945
10
173.41700990507857
20
16.894323385208409
42
-2.6321843392102441e-05
10
44.01687781822357
20
16.888047854037062
42
-0.4142123478657872
10
29.115477611400959
20
31.789509850893065
0
CIRCLE
5
102
100
AcDbEntity
8
0
100
AcDbCircle
10
198.51550290646895
20
6.6844361096929061
30
0
40
1.5999999999999894
210
0
220
0
230
1
0
LWPOLYLINE
5
103
100
AcDbEntity
8
0
100
AcDbPolyline
90
8
70
1
43
0.0
10
14.11547761134015
20
142.82367222981918
10
14.11547761134015
20
7.6833917914948611
42
0.4142135623730957
10
19.910477611340163
20
1.8883917914948622
10
197.52050290646892
20
1.88839179149485
42
0.41421356237309215
10
203.31550290646891
20
7.6833917914948557
10
203.31550290646891
20
142.83282939214143
42
0.41421356237309503
10
197.52994050711547
20
148.61839179149487
10
19.91019717301586
20
148.61839179149487
42
0.41421356237309503
0
CIRCLE
5
104
100
AcDbEntity
8
0
100
AcDbCircle
10
18.908474424696049
20
143.82565697767737
30
0
40
1.6000000000000019
210
0
220
0
230
1
0
CIRCLE
5
105
100
AcDbEntity
8
0
100
AcDbCircle
10
18.906257681735418
20
6.6714136156715771
30
0
40
1.6000000000000003
210
0
220
0
230
1
0
LWPOLYLINE
5
106
100
AcDbEntity
8
0
100
AcDbPolyline
90
9
70
1
43
0.0
10
30.078467944320071
20
22.646382109528336
10
16.822584407432608
20
9.3904985726626897
42
-0.6681786379148078
10
15.115477626246641
20
10.097605353838222
10
15.115477626246648
20
34.838391791506837
42
-0.41421356237309048
10
16.115477626246644
20
35.83839179150683
10
27.115477611318273
20
35.83839179150683
42
-0.41421356236974832
10
28.115477611318273
20
34.838391791518248
10
28.115477611353082
20
31.789509850888749
42
0.13139697955301619
10
30.237888475849964
20
23.852618549539095
42
-0.33917416721979476
0
LINE
5
107
100
AcDbEntity
8
0
100
AcDbLine
10
21.617518128846957
20
4.5954323238922878
30
0
11
34.873375406353929
21
17.851289601172361
31
0
0
ARC
5
108
100
AcDbEntity
8
0
100
AcDbCircle
10
44.016939608426007
20
31.789509850931733
30
0
40
15.901461997650902
210
0
220
0
230
1
100
AcDbArc
50
240.05585710744566
51
269.99976241775659
0
ARC
5
109
100
AcDbEntity
8
0
100
AcDbCircle
10
35.580482187534408
20
17.144182819979772
30
0
40
1.0000000000003411
210
0
220
-0
230
1
100
AcDbArc
50
60.0558571074165
51
134.99999999950933
0
LWPOLYLINE
5
110
100
AcDbEntity
8
0
100
AcDbPolyline
90
9
70
1
43
0.0
10
187.35061004735087
20
22.6482846357464
10
200.60839611040132
20
9.3904985727015937
42
0.66817863794787513
10
202.3155028915491
20
10.097605353867962
10
202.3155028915491
20
34.838391791845474
42
0.41421356237308854
10
201.3155028915491
20
35.838391791845474
10
190.31550290712693
20
35.838391791845474
42
0.41421356237493812
10
189.31550290712693
20
34.83839179183915
10
189.31550290713884
20
31.794323309493926
42
-0.13146020905515796
10
187.19131363786732
20
23.8547364993195
42
0.33924347491216894
0
LWPOLYLINE
5
111
100
AcDbEntity
8
0
100
AcDbPolyline
90
9
70
1
43
0.0
10
182.56376562547518
20
132.65221689495345
10
195.82283372592897
20
145.91128499540719
42
0.66817863791925503
10
195.11572694474242
20
147.61839177659371
10
168.66547762624668
20
147.61839177659365
42
0.41421356237310542
10
167.66547762624668
20
146.61839177659368
10
167.66547762624668
20
135.61839179190596
42
0.41421356237724172
10
168.66547762626095
20
134.61839179190599
10
173.41550290654979
20
134.61839179197347
42
-0.13149884035768358
10
181.35718216160799
20
132.49299634572731
42
0.33928582064554136
0
LWPOLYLINE
5
112
100
AcDbEntity
8
0
100
AcDbPolyline
90
9
70
1
43
0.0
10
187.34932800997018
20
127.86665451055566
10
200.60839611038301
20
141.12572261096719
42
-0.66817863791180432
10
202.3155028915491
20
140.41861582976838
10
202.3155028915491
20
115.33839179184547
42
-0.41421356237310542
10
201.3155028915491
20
114.33839179184547
10
190.31550290710112
20
114.33839179184547
42
-0.41421356236741352
10
189.31550290710112
20
115.33839179182598
10
189.31550290703527
20
118.71839179151755
42
0.13149884035934425
10
187.19010746070626
20
126.66007104663363
42
-0.33928582065525464
0
LWPOLYLINE
5
113
100
AcDbEntity
8
0
100
AcDbPolyline
90
9
70
1
43
0.0
10
30.078304693243663
20
127.86084516281684
10
16.822584407433197
20
141.11656544862731
42
0.66817863791929888
10
15.115477626246651
20
140.40945866744076
10
15.115477626246642
20
115.33839179150682
42
0.41421356237309698
10
16.115477626246644
20
114.33839179150682
10
27.115477611271647
20
114.33839179150682
42
0.41421356238340834
10
28.11547761127165
20
115.33839179154202
10
28.115477611152659
20
118.71839179153234
42
-0.13139794087787762
10
30.237723338039963
20
126.65460544730794
42
0.33917522094120867
0
LWPOLYLINE
5
114
100
AcDbEntity
8
0
100
AcDbPolyline
90
9
70
1
43
0.0
10
34.873024240030226
20
132.65556470957938
10
21.617303954202374
20
145.91128499540716
42
-0.66817863791927157
10
22.324410735388934
20
147.61839177659365
10
48.765477626246664
20
147.61839177659365
42
-0.41421356237309764
10
49.765477626246657
20
146.61839177659368
10
49.76547762624665
20
135.61839179165116
42
-0.41421356237225476
10
48.765477626249485
20
134.61839179165113
10
44.015477611285107
20
134.61839179163772
42
0.13139794087732601
10
36.079263955535772
20
132.49614606478116
42
-0.33917522094013985
0
LWPOLYLINE
5
115
100
AcDbEntity
8
0
100
AcDbPolyline
90
8
70
1
43
0.0
10
27.115477611306854
20
51.33839179150683
10
16.115477626246644
20
51.33839179150683
42
0.41421356237309698
10
15.115477626246641
20
50.33839179150683
10
15.115477626246648
20
37.838391791506822
42
0.41421356237309048
10
16.115477626246644
20
36.838391791506822
10
27.115477611306851
20
36.838391791506822
42
0.41421356237308982
10
28.115477611306851
20
37.83839179150683
10
28.115477611306851
20
50.33839179150683
42
0.41421356237310025
0
LWPOLYLINE
5
116
100
AcDbEntity
8
0
100
AcDbPolyline
90
8
70
1
43
0.0
10
27.115477611306851
20
52.338391791506822
10
16.115477626246644
20
52.338391791506822
42
-0.4142135623730957
10
15.115477626246648
20
53.338391791506822
10
15.115477626246641
20
65.838391791506837
42
-0.41421356237309698
10
16.115477626246644
20
66.838391791506822
10
27.115477611306854
20
66.838391791506822
42
-0.41421356237310025
10
28.115477611306851
20
65.838391791506837
10
28.115477611306861
20
53.338391791506808
42
-0.41421356237309631
0
LWPOLYLINE
5
117
100
AcDbEntity
8
0
100
AcDbPolyline
90
8
70
1
43
0.0
10
201.3155028915491
20
51.338391791845474
10
190.31550290712062
20
51.338391791845474
42
0.41421356237308721
10
189.31550290712062
20
50.338391791845474
10
189.31550290712062
20
37.838391791845474
42
0.41421356237308854
10
190.31550290712062
20
36.838391791845467
10
201.3155028915491
20
36.838391791845467
42
0.41421356237308854
10
202.3155028915491
20
37.838391791845474
10
202.3155028915491
20
50.338391791845474
42
0.41421356237308721
0
LWPOLYLINE
5
118
100
AcDbEntity
8
0
100
AcDbPolyline
90
8
70
1
43
0.0
10
201.3155028915491
20
52.338391791845467
10
190.31550290712062
20
52.338391791845481
42
-0.41421356237308721
10
189.31550290712062
20
53.338391791845467
10
189.31550290712062
20
65.838391791845481
42
-0.41421356237308982
10
190.31550290712062
20
66.838391791845467
10
201.3155028915491
20
66.838391791845467
42
-0.41421356237308982
10
202.3155028915491
20
65.838391791845481
10
202.3155028915491
20
53.338391791845467
42
-0.41421356237308721
0
LWPOLYLINE
5
119
100
AcDbEntity
8
0
100
AcDbPolyline
90
8
70
1
43
0.0
10
201.3155028915491
20
67.838391791845467
10
190.31550290712062
20
67.838391791845467
42
-0.41421356237308982
10
189.31550290712062
20
68.838391791845467
10
189.31550290712062
20
81.338391791845481
42
-0.41421356237310542
10
190.31550290712062
20
82.338391791845481
10
201.3155028915491
20
82.338391791845453
42
-0.41421356237310542
10
202.3155028915491
20
81.338391791845481
10
202.3155028915491
20
68.838391791845467
42
-0.41421356237308982
0
LWPOLYLINE
5
120
100
AcDbEntity
8
0
100
AcDbPolyline
90
8
70
1
43
0.0
10
27.115477611306854
20
67.838391791506822
10
16.115477626246644
20
67.838391791506822
42
-0.41421356237309698
10
15.115477626246641
20
68.838391791506822
10
15.115477626246637
20
81.338391791506837
42
-0.41421356237309825
10
16.115477626246644
20
82.338391791506837
10
27.115477611306854
20
82.338391791506837
42
-0.41421356237309892
10
28.115477611306865
20
81.338391791506837
10
28.115477611306851
20
68.838391791506822
42
-0.41421356237310025
0
LWPOLYLINE
5
121
100
AcDbEntity
8
0
100
AcDbPolyline
90
8
70
1
43
0.0
10
27.115477611306851
20
83.338391791506837
10
16.115477626246644
20
83.338391791506837
42
-0.41421356237309437
10
15.115477626246651
20
84.338391791506822
10
15.115477626246651
20
96.838391791506822
42
-0.41421356237309437
10
16.115477626246644
20
97.838391791506822
10
27.115477611306851
20
97.838391791506822
42
-0.41421356237309243
10
28.115477611306858
20
96.838391791506837
10
28.115477611306858
20
84.338391791506808
42
-0.41421356237309243
0
LWPOLYLINE
5
122
100
AcDbEntity
8
0
100
AcDbPolyline
90
8
70
1
43
0.0
10
27.115477611306851
20
98.838391791506837
10
16.115477626246644
20
98.838391791506837
42
-0.41421356237309437
10
15.115477626246651
20
99.838391791506837
10
15.115477626246651
20
112.33839179150684
42
-0.41421356237309437
10
16.115477626246644
20
113.33839179150684
10
27.115477611306851
20
113.33839179150684
42
-0.41421356237309243
10
28.115477611306858
20
112.33839179150685
10
28.115477611306858
20
99.838391791506808
42
-0.41421356237309243
0
LWPOLYLINE
5
123
100
AcDbEntity
8
0
100
AcDbPolyline
90
8
70
1
43
0.0
10
201.3155028915491
20
83.338391791845481
10
190.31550290712062
20
83.338391791845481
42
-0.41421356237308982
10
189.31550290712062
20
84.338391791845467
10
189.31550290712062
20
96.838391791845467
42
-0.41421356237308982
10
190.31550290712062
20
97.838391791845467
10
201.3155028915491
20
97.838391791845467
42
-0.41421356237308982
10
202.3155028915491
20
96.838391791845467
10
202.3155028915491
20
84.338391791845467
42
-0.41421356237308982
0
LWPOLYLINE
5
124
100
AcDbEntity
8
0
100
AcDbPolyline
90
8
70
1
43
0.0
10
201.3155028915491
20
98.838391791845481
10
190.31550290712062
20
98.838391791845481
42
-0.41421356237308982
10
189.31550290712062
20
99.838391791845481
10
189.31550290712062
20
112.33839179184548
42
-0.41421356237308982
10
190.31550290712062
20
113.33839179184548
10
201.3155028915491
20
113.33839179184548
42
-0.41421356237308982
10
202.3155028915491
20
112.33839179184548
10
202.3155028915491
20
99.838391791845481
42
-0.41421356237308982
0
LWPOLYLINE
5
125
100
AcDbEntity
8
0
100
AcDbPolyline
90
8
70
1
43
0.0
10
50.76547762624665
20
135.61839179165395
10
50.765477626246664
20
146.61839177659368
42
-0.41421356237309764
10
51.76547762624665
20
147.61839177659365
10
65.465477626246667
20
147.61839177659365
42
-0.41421356237309764
10
66.465477626246653
20
146.61839177659368
10
66.465477626246653
20
135.61839179165395
42
-0.41421356237309503
10
65.465477626246667
20
134.61839179165395
10
51.76547762624665
20
134.61839179165395
42
-0.41421356237309503
0
LINE
5
126
100
AcDbEntity
8
0
100
AcDbLine
10
49.765477626246593
20
14.888037336495472
30
0
11
49.765477626246593
21
3.8883918064139911
31
0
0
LINE
5
127
100
AcDbEntity
8
0
100
AcDbLine
10
50.765477626246593
20
14.888039578945609
30
0
11
50.765477626246593
21
3.8883918064139933
31
0
0
LWPOLYLINE
5
128
100
AcDbEntity
8
0
100
AcDbPolyline
90
8
70
1
43
0.0
10
67.465477626246653
20
135.61839179165395
10
67.465477626246667
20
146.61839177659368
42
-0.41421356237309764
10
68.465477626246653
20
147.61839177659365
10
82.165477626246656
20
147.61839177659365
42
-0.41421356237309503
10
83.165477626246656
20
146.61839177659368
10
83.165477626246656
20
135.61839179165395
42
-0.41421356237309503
10
82.165477626246656
20
134.61839179165395
10
68.465477626246653
20
134.61839179165395
42
-0.41421356237309503
0
LINE
5
129
100
AcDbEntity
8
0
100
AcDbLine
10
66.465477626246596
20
14.888145502482075
30
0
11
66.465477626246596
21
3.8883918064139911
31
0
0
LINE
5
130
100
AcDbEntity
8
0
100
AcDbLine
10
67.465477626246567
20
14.888189079501897
30
0
11
67.465477626246596
21
3.8883918064139911
31
0
0
LWPOLYLINE
5
131
100
AcDbEntity
8
0
100
AcDbPolyline
90
8
70
1
43
0.0
10
84.165477626246656
20
135.61839179165395
10
84.165477626246656
20
146.61839177659368
42
-0.41421356237310542
10
85.165477626246656
20
147.61839177659365
10
98.865477626246658
20
147.61839177659365
42
-0.41421356237310542
10
99.865477626246658
20
146.61839177659368
10
99.865477626246658
20
135.61839179165395
42
-0.41421356237309503
10
98.865477626246658
20
134.61839179165395
10
85.165477626246656
20
134.61839179165395
42
-0.41421356237309503
0
LWPOLYLINE
5
132
100
AcDbEntity
8
0
100
AcDbPolyline
90
8
70
1
43
0.0
10
100.86547762624664
20
135.61839179165395
10
100.86547762624664
20
146.61839177659368
42
-0.41421356237309503
10
101.86547762624664
20
147.61839177659365
10
115.56547762624666
20
147.61839177659365
42
-0.41421356237309503
10
116.56547762624666
20
146.61839177659368
10
116.56547762624666
20
135.61839179165395
42
-0.41421356237309503
10
115.56547762624666
20
134.61839179165395
10
101.86547762624664
20
134.61839179165395
42
-0.41421356237309503
0
LINE
5
133
100
AcDbEntity
8
0
100
AcDbLine
10
99.865477626246587
20
14.889043737493923
30
0
11
99.865477626246602
21
3.8883918064139955
31
0
0
LINE
5
134
100
AcDbEntity
8
0
100
AcDbLine
10
83.165477626246584
20
14.888481159723597
30
0
11
83.165477626246584
21
3.8883918064139911
31
0
0
LINE
5
135
100
AcDbEntity
8
0
100
AcDbLine
10
84.165477626246599
20
14.88856550102355
30
0
11
84.165477626246599
21
3.8883918064139911
31
0
0
LINE
5
136
100
AcDbEntity
8
0
100
AcDbLine
10
99.865477626246658
20
147.61839177659365
30
0
11
99.865477626246658
21
134.61839179165395
31
0
0
LINE
5
137
100
AcDbEntity
8
0
100
AcDbLine
10
100.86547762624664
20
147.61839177659365
30
0
11
100.86547762624664
21
134.61839179165395
31
0
0
LWPOLYLINE
5
138
100
AcDbEntity
8
0
100
AcDbPolyline
90
8
70
1
43
0.0
10
117.56547762624665
20
135.61839179165395
10
117.56547762624665
20
146.61839177659368
42
-0.41421356237310542
10
118.56547762624665
20
147.61839177659365
10
132.26547762624665
20
147.61839177659365
42
-0.41421356237310542
10
133.26547762624665
20
146.61839177659368
10
133.26547762624665
20
135.61839179165395
42
-0.41421356237309503
10
132.26547762624665
20
134.61839179165395
10
118.56547762624665
20
134.61839179165395
42
-0.41421356237309503
0
LWPOLYLINE
5
139
100
AcDbEntity
8
0
100
AcDbPolyline
90
8
70
1
43
0.0
10
134.26547762624665
20
135.61839179165395
10
134.26547762624665
20
146.61839177659368
42
-0.41421356237309503
10
135.26547762624665
20
147.61839177659365
10
148.96547762624667
20
147.61839177659365
42
-0.41421356237309503
10
149.96547762624664
20
146.61839177659368
10
149.96547762624664
20
135.61839179165395
42
-0.41421356237309503
10
148.96547762624667
20
134.61839179165395
10
135.26547762624665
20
134.61839179165395
42
-0.41421356237309503
0
LWPOLYLINE
5
140
100
AcDbEntity
8
0
100
AcDbPolyline
90
8
70
1
43
0.0
10
150.96547762624664
20
135.61839179165395
10
150.96547762624664
20
146.61839177659368
42
-0.41421356237310542
10
151.96547762624664
20
147.61839177659365
10
165.66547762624666
20
147.61839177659365
42
-0.41421356237310542
10
166.66547762624668
20
146.61839177659368
10
166.66547762624668
20
135.61839179165395
42
-0.41421356237308982
10
165.66547762624666
20
134.61839179165395
10
151.96547762624664
20
134.61839179165395
42
-0.41421356237309503
0
LINE
5
141
100
AcDbEntity
8
0
100
AcDbLine
10
149.96547762624658
20
14.892092993541157
30
0
11
149.96547762624661
21
3.8883918064139933
31
0
0
LINE
5
142
100
AcDbEntity
8
0
100
AcDbLine
10
133.26547762624659
20
14.89084965447546
30
0
11
133.26547762624659
21
3.8883918064139911
31
0
0
LINE
5
143
100
AcDbEntity
8
0
100
AcDbLine
10
134.26547762624659
20
14.891056288179241
30
0
11
134.26547762624659
21
3.8883918064139911
31
0
0
LINE
5
144
100
AcDbEntity
8
0
100
AcDbLine
10
117.5654776262466
20
14.889999105216702
30
0
11
117.5654776262466
21
3.8883918064139888
31
0
0
LINE
5
145
100
AcDbEntity
8
0
100
AcDbLine
10
116.56547762624658
20
14.889833235647529
30
0
11
116.56547762624658
21
3.8883918064139911
31
0
0
LINE
5
146
100
AcDbEntity
8
0
100
AcDbLine
10
100.86547762624659
20
14.889168842782965
30
0
11
100.86547762624659
21
3.8883918064139911
31
0
0
LINE
5
147
100
AcDbEntity
8
0
100
AcDbLine
10
135.26547762624659
20
2.8883918064139862
30
0
11
148.96547762624661
21
2.8883918064139853
31
0
0
LINE
5
148
100
AcDbEntity
8
0
100
AcDbLine
10
118.56547762624659
20
2.8883918064139937
30
0
11
132.26547762624659
21
2.8883918064139849
31
0
0
LINE
5
149
100
AcDbEntity
8
0
100
AcDbLine
10
101.86547762624657
20
2.8883918064139937
30
0
11
115.56547762624659
21
2.8883918064139937
31
0
0
LINE
5
150
100
AcDbEntity
8
0
100
AcDbLine
10
85.165477626246599
20
2.8883918064139937
30
0
11
98.865477626246602
21
2.8883918064139937
31
0
0
LINE
5
151
100
AcDbEntity
8
0
100
AcDbLine
10
22.324691174739137
20
2.8883918064139946
30
0
11
48.7654776262466
21
2.8883918064139893
31
0
0
ARC
5
152
100
AcDbEntity
8
0
100
AcDbCircle
10
49.113109397622587
20
1229035.410799219
30
0
40
1229019.5227619316
210
0
220
0
230
1
100
AcDbArc
50
269.99976241809577
51
269.99998379373415
0
LINE
5
153
100
AcDbEntity
8
0
100
AcDbLine
10
51.765477626246586
20
2.8883918064139893
30
0
11
65.465477626246596
21
2.8883918064139893
31
0
0
LINE
5
154
100
AcDbEntity
8
0
100
AcDbLine
10
68.465477626246582
20
2.8883918064139906
30
0
11
82.165477626246584
21
2.8883918064139937
31
0
0
ARC
5
155
100
AcDbEntity
8
0
100
AcDbCircle
10
49.113109397622587
20
1229035.410799219
30
0
40
1229019.5227625023
210
0
220
0
230
1
100
AcDbArc
50
270.0001236509093
51
270.00076233200929
0
ARC
5
156
100
AcDbEntity
8
0
100
AcDbCircle
10
49.113109397622587
20
1229035.410799219
30
0
40
1229019.5227625023
210
0
220
0
230
1
100
AcDbArc
50
270.0009021891845
51
270.00154087028454
0
ARC
5
157
100
AcDbEntity
8
0
100
AcDbCircle
10
49.113109397622587
20
1229035.410799219
30
0
40
1229019.5227625023
210
0
220
0
230
1
100
AcDbArc
50
270.00323780401152
51
270.00387648511264
0
ARC
5
158
100
AcDbEntity
8
0
100
AcDbCircle
10
49.113109397622587
20
1229035.410799219
30
0
40
1229019.5227625025
210
0
220
0
230
1
100
AcDbArc
50
270.00401634228814
51
270.00465502338994
0
ARC
5
159
100
AcDbEntity
8
0
100
AcDbCircle
10
49.113109397622587
20
1229035.410799219
30
0
40
1229019.5227625021
210
0
220
0
230
1
100
AcDbArc
50
270.00168072745981
51
270.00231940856014
0
ARC
5
160
100
AcDbEntity
8
0
100
AcDbCircle
10
49.113109397622587
20
1229035.410799219
30
0
40
1229019.5227625023
210
0
220
0
230
1
100
AcDbArc
50
270.00245926573541
51
270.00309794683614
0
LINE
5
161
100
AcDbEntity
8
0
100
AcDbLine
10
21.617518128846957
20
4.5954323238922878
30
0
11
21.61758883952508
21
4.5955030345704042
31
0
0
LINE
5
162
100
AcDbEntity
8
0
100
AcDbLine
10
22.324691174739137
20
2.8883918064139946
30
0
11
22.321711478108938
21
2.8884006983004991
31
0
0
ARC
5
163
100
AcDbEntity
8
0
100
AcDbCircle
10
22.324695623658933
20
3.8883962501201355
30
0
40
1.0000000043918611
210
0
220
0
230
1
100
AcDbArc
50
134.99999998718064
51
269.82902080151769
0
ARC
5
164
100
AcDbEntity
8
0
100
AcDbCircle
10
48.765477626147167
20
14.888037336454293
30
0
40
1.000000000099428
210
0
220
-0
230
1
100
AcDbArc
50
0
51
89.999983807716518
0
ARC
5
165
100
AcDbEntity
8
0
100
AcDbCircle
10
48.7654776262466
20
3.8883918064139857
30
0
40
0.99999999999999645
210
-0
220
0
230
1
100
AcDbArc
50
-90
51
0
0
ARC
5
166
100
AcDbEntity
8
0
100
AcDbCircle
10
51.765477626246586
20
3.8883918064139857
30
0
40
0.99999999999999645
210
0
220
0
230
1
100
AcDbArc
50
180
51
270
0
ARC
5
167
100
AcDbEntity
8
0
100
AcDbCircle
10
51.765477626101521
20
14.888039579005701
30
0
40
0.99999999985492982
210
0
220
0
230
1
100
AcDbArc
50
90.00012365512427
51
180
0
ARC
5
168
100
AcDbEntity
8
0
100
AcDbCircle
10
65.465477626244564
20
14.888145502481239
30
0
40
1.0000000000020304
210
0
220
-0
230
1
100
AcDbArc
50
0
51
90.000762315767844
0
ARC
5
169
100
AcDbEntity
8
0
100
AcDbCircle
10
65.465477626246596
20
3.8883918064139857
30
0
40
0.99999999999999645
210
-0
220
0
230
1
100
AcDbArc
50
-90
51
0
0
ARC
5
170
100
AcDbEntity
8
0
100
AcDbCircle
10
68.465477626246582
20
3.8883918064139871
30
0
40
0.99999999999999645
210
0
220
0
230
1
100
AcDbArc
50
180
51
270
0
ARC
5
171
100
AcDbEntity
8
0
100
AcDbCircle
10
68.465477626557572
20
14.888189079373085
30
0
40
1.0000000003109923
210
0
220
0
230
1
100
AcDbArc
50
90.000902201772689
51
180
0
ARC
5
172
100
AcDbEntity
8
0
100
AcDbCircle
10
82.165477626275148
20
14.888481159735438
30
0
40
0.99999999997143263
210
0
220
0
230
1
100
AcDbArc
50
0
51
90.001540867882198
0
ARC
5
173
100
AcDbEntity
8
0
100
AcDbCircle
10
82.165477626246584
20
3.8883918064139902
30
0
40
0.99999999999999645
210
-0
220
0
230
1
100
AcDbArc
50
-90
51
0
0
ARC
5
174
100
AcDbEntity
8
0
100
AcDbCircle
10
85.165477626246599
20
3.8883918064139902
30
0
40
0.99999999999999645
210
0
220
0
230
1
100
AcDbArc
50
180
51
270
0
ARC
5
175
100
AcDbEntity
8
0
100
AcDbCircle
10
85.165477626335218
20
14.888565500986841
30
0
40
1.0000000000886178
210
0
220
0
230
1
100
AcDbArc
50
90.001680726648189
51
180
0
ARC
5
176
100
AcDbEntity
8
0
100
AcDbCircle
10
98.865477625990579
20
14.889043737387874
30
0
40
1.000000000256005
210
0
220
-0
230
1
100
AcDbArc
50
0
51
90.002319376333475
0
ARC
5
177
100
AcDbEntity
8
0
100
AcDbCircle
10
98.865477626246602
20
3.8883918064139902
30
0
40
0.99999999999999645
210
-0
220
0
230
1
100
AcDbArc
50
-90
51
0
0
ARC
5
178
100
AcDbEntity
8
0
100
AcDbCircle
10
101.86547762624657
20
3.8883918064139902
30
0
40
0.99999999999999645
210
0
220
0
230
1
100
AcDbArc
50
180
51
270
0
ARC
5
179
100
AcDbEntity
8
0
100
AcDbCircle
10
101.86547762642796
20
14.889168842707857
30
0
40
1.0000000001813791
210
0
220
0
230
1
100
AcDbArc
50
90.002459275704297
51
180
0
ARC
5
180
100
AcDbEntity
8
0
100
AcDbCircle
10
115.56547762613606
20
14.889833235601756
30
0
40
1.0000000001105214
210
0
220
-0
230
1
100
AcDbArc
50
0
51
90.003097935399779
0
ARC
5
181
100
AcDbEntity
8
0
100
AcDbCircle
10
115.56547762624659
20
3.8883918064139902
30
0
40
0.99999999999999645
210
-0
220
0
230
1
100
AcDbArc
50
-90
51
0
0
ARC
5
182
100
AcDbEntity
8
0
100
AcDbCircle
10
118.56547762624659
20
3.8883918064139902
30
0
40
0.99999999999999645
210
0
220
0
230
1
100
AcDbArc
50
180
51
270
0
ARC
5
183
100
AcDbEntity
8
0
100
AcDbCircle
10
118.56547762633915
20
14.889999105178378
30
0
40
1.0000000000925455
210
0
220
0
230
1
100
AcDbArc
50
90.003237809528073
51
180
0
ARC
5
184
100
AcDbEntity
8
0
100
AcDbCircle
10
132.26547762621468
20
14.890849654462233
30
0
40
1.0000000000319176
210
0
220
-0
230
1
100
AcDbArc
50
0
51
90.003876505646673
0
ARC
5
185
100
AcDbEntity
8
0
100
AcDbCircle
10
132.26547762624659
20
3.8883918064139813
30
0
40
0.99999999999999645
210
-0
220
0
230
1
100
AcDbArc
50
-90
51
0
0
ARC
5
186
100
AcDbEntity
8
0
100
AcDbCircle
10
135.26547762624659
20
3.8883918064139826
30
0
40
0.99999999999999645
210
0
220
0
230
1
100
AcDbArc
50
180
51
270
0
ARC
5
187
100
AcDbEntity
8
0
100
AcDbCircle
10
135.2654776260687
20
14.891056288252905
30
0
40
0.99999999982213139
210
0
220
0
230
1
100
AcDbArc
50
90.00401637969037
51
180
0
ARC
5
188
100
AcDbEntity
8
0
100
AcDbCircle
10
148.96547762597831
20
14.892092993430033
30
0
40
1.0000000002682796
210
0
220
-0
230
1
100
AcDbArc
50
0
51
90.00465499934549
0
ARC
5
189
100
AcDbEntity
8
0
100
AcDbCircle
10
148.96547762624661
20
3.8883918064139817
30
0
40
0.99999999999999645
210
-0
220
0
230
1
100
AcDbArc
50
-90
51
0
0
LWPOLYLINE
5
190
100
AcDbEntity
8
0
100
AcDbPolyline
90
8
70
1
43
0.0
10
151.96766552987265
20
2.893224304131099
42
-0.41421356237310542
10
150.96763529504085
20
3.8931940683850996
10
150.96730270686325
20
14.893194048296881
42
-0.4142135623730846
10
151.96727247111727
20
15.893224283128724
10
165.66727246485516
20
15.893638506586782
42
-0.41421356237308982
10
166.66730269968707
20
14.893668742332746
10
166.66763528786458
20
3.8936687624209654
42
-0.41421356237309503
10
165.66766552361059
20
2.8936385275891752
0
LWPOLYLINE
5
191
100
AcDbEntity
8
0
100
AcDbPolyline
90
9
70
1
43
0.0
10
173.41729774161593
20
15.893872830520497
10
168.66727246349825
20
15.893729212201464
42
0.41421356237724688
10
167.66730269922999
20
14.89369897736962
10
167.66763528740753
20
3.893698997709869
42
0.41421356237310025
10
168.66766552223936
20
2.8937292334559039
10
195.11791482864507
20
2.8945289643857031
42
0.66817863791924215
10
195.82496999464166
20
4.601657124369769
10
182.56550100849375
20
17.860324327008268
42
0.33928582064554819
10
181.3589127310988
20
18.0195083947619
42
-0.13149884035768347
0
ENDSEC
0
SECTION
2
OBJECTS
0
DICTIONARY
5
C
100
AcDbDictionary
3
ACAD_GROUP
350
D
3
ACAD_MLINESTYLE
350
17
0
DICTIONARY
5
D
100
AcDbDictionary
0
DICTIONARY
5
1A
330
C
100
AcDbDictionary
0
DICTIONARY
5
17
100
AcDbDictionary
0
ENDSEC
0
EOF
