999
"DXF R12 Output" (www.mydxf.blogspot.com)
 0 
SECTION
 2 
HEADER
 9 
$ACADVER
 1 
AC1009
 9 
$EXTMIN
 10 
 0 
 20 
 0 
 9 
$EXTMAX
 10 
 8.5 
 20 
 11 
 0 
ENDSEC
 0 
SECTION
 2 
ENTITIES
0
LINE
8
Ebene 2
10
3.584220
20
22.155100
11
10.678000
21
37.462700
0
LINE
8
Ebene 2
10
10.678000
20
37.462700
11
15.158300
21
37.462700
0
LINE
8
Ebene 2
10
15.158300
20
37.462700
11
15.158300
21
33.729100
0
LINE
8
Ebene 2
10
15.158300
20
33.729100
11
16.278300
21
33.729100
0
LINE
8
Ebene 2
10
16.278300
20
33.729100
11
18.145100
21
37.462700
0
LINE
8
Ebene 2
10
18.145100
20
37.462700
11
23.372100
21
37.462700
0
LINE
8
Ebene 2
10
23.372100
20
37.462700
11
16.278300
21
22.155100
0
LINE
8
Ebene 2
10
16.278300
20
22.155100
11
12.544800
21
22.155100
0
LINE
8
Ebene 2
10
12.544800
20
22.155100
11
17.771800
21
32.609100
0
LINE
8
Ebene 2
10
17.771800
20
32.609100
11
16.241250
21
29.639960
0
LINE
8
Ebene 2
10
16.241250
20
29.639960
11
13.664880
21
29.622236
0
LINE
8
Ebene 2
10
13.664880
20
29.622236
11
13.664800
21
32.609100
0
LINE
8
Ebene 2
10
13.664800
20
32.609100
11
12.171400
21
32.609100
0
LINE
8
Ebene 2
10
12.171400
20
32.609100
11
9.884595
21
27.382100
0
LINE
8
Ebene 2
10
9.884595
20
27.382100
11
8.233661
21
23.788537
0
LINE
8
Ebene 2
10
8.233661
20
23.788537
11
7.317770
21
22.155100
0
LINE
8
Ebene 2
10
7.317770
20
22.155100
11
3.584220
21
22.155100
0
LINE
8
Ebene 2
10
16.278300
20
22.155100
11
19.638500
21
22.155100
0
LINE
8
Ebene 2
10
19.638500
20
22.155100
11
21.505280
21
25.888660
0
LINE
8
Ebene 2
10
21.505280
20
25.888660
11
25.238900
21
25.888700
0
LINE
8
Ebene 2
10
25.238900
20
25.888700
11
27.105680
21
29.995620
0
LINE
8
Ebene 2
10
27.105680
20
29.995620
11
23.372100
21
29.995600
0
LINE
8
Ebene 2
10
23.372100
20
29.995600
11
25.238900
21
33.729100
0
LINE
8
Ebene 2
10
25.238900
20
33.729100
11
32.332600
21
33.729100
0
LINE
8
Ebene 2
10
32.332600
20
33.729100
11
34.199380
21
37.462660
0
LINE
8
Ebene 2
10
34.199380
20
37.462660
11
23.372100
21
37.462700
0
LINE
8
Ebene 2
10
23.372100
20
37.462700
11
16.278300
21
22.155100
0
LINE
8
Ebene 2
10
26.583000
20
22.155100
11
34.199400
21
37.462700
0
LINE
8
Ebene 2
10
34.199400
20
37.462700
11
41.293200
21
37.462700
0
LINE
8
Ebene 2
10
41.293200
20
37.462700
11
42.786630
21
33.729140
0
LINE
8
Ebene 2
10
42.786630
20
33.729140
11
42.786600
21
32.609100
0
LINE
8
Ebene 2
10
42.786600
20
32.609100
11
37.932970
21
22.155100
0
LINE
8
Ebene 2
10
37.932970
20
22.155100
11
26.583000
21
22.155100
0
LINE
8
Ebene 2
10
36.066200
20
33.729100
11
39.426400
21
33.729100
0
LINE
8
Ebene 2
10
39.426400
20
33.729100
11
36.066190
21
25.888620
0
LINE
8
Ebene 2
10
36.066190
20
25.888620
11
32.332600
21
25.888700
0
LINE
8
Ebene 2
10
32.332600
20
25.888700
11
36.066160
21
33.729180
0
LINE
8
Ebene 2
10
42.786600
20
33.729100
11
48.387000
21
33.729100
0
LINE
8
Ebene 2
10
48.387000
20
33.729100
11
49.880420
21
30.368890
0
LINE
8
Ebene 2
10
49.880420
20
30.368890
11
49.880400
21
28.875500
0
LINE
8
Ebene 2
10
49.880400
20
28.875500
11
46.520190
21
22.155090
0
LINE
8
Ebene 2
10
46.520190
20
22.155090
11
41.293200
21
22.155100
0
LINE
8
Ebene 2
10
41.293200
20
22.155100
11
40.845173
21
22.827141
0
LINE
8
Ebene 2
10
40.845173
20
22.827141
11
39.501093
21
25.515301
0
LINE
8
Ebene 2
10
39.501093
20
25.515301
11
42.786633
21
32.609071
0
LINE
8
Ebene 2
10
42.786633
20
32.609071
11
42.786600
21
33.729100
0
LINE
8
Ebene 2
10
44.877400
20
29.846200
11
46.520200
21
29.846200
0
LINE
8
Ebene 2
10
44.802700
20
26.038000
11
48.461590
21
26.038000
0
LINE
8
Ebene 2
10
48.387000
20
33.729100
11
52.867200
21
33.729100
0
LINE
8
Ebene 2
10
52.867200
20
33.729100
11
52.867200
21
26.262000
0
LINE
8
Ebene 2
10
52.867200
20
26.262000
11
53.987300
21
26.262000
0
LINE
8
Ebene 2
10
53.987300
20
26.262000
11
57.347500
21
33.729100
0
LINE
8
Ebene 2
10
57.347500
20
33.729100
11
61.081100
21
33.729100
0
LINE
8
Ebene 2
10
61.081100
20
33.729100
11
55.480760
21
22.155100
0
LINE
8
Ebene 2
10
55.480760
20
22.155100
11
49.133700
21
22.155100
0
LINE
8
Ebene 2
10
49.133700
20
22.155100
11
49.133700
21
27.382100
0
LINE
8
Ebene 2
10
49.133700
20
27.382100
11
49.880411
21
28.875530
0
LINE
8
Ebene 2
10
49.880411
20
28.875530
11
49.880400
21
30.368900
0
LINE
8
Ebene 2
10
49.880400
20
30.368900
11
48.387000
21
33.729100
0
LINE
8
Ebene 2
10
55.480700
20
22.155100
11
61.081040
21
33.729100
0
LINE
8
Ebene 2
10
61.081040
20
33.729100
11
64.665300
21
33.729100
0
LINE
8
Ebene 2
10
64.665300
20
33.729100
11
59.214300
21
22.155100
0
LINE
8
Ebene 2
10
59.214300
20
22.155100
11
55.480700
21
22.155100
0
LINE
8
Ebene 2
10
64.665300
20
33.729100
11
73.551180
21
33.654429
0
LINE
8
Ebene 2
10
73.551180
20
33.654429
11
68.174850
21
22.155029
0
LINE
8
Ebene 2
10
68.174850
20
22.155029
11
62.723800
21
22.155100
0
LINE
8
Ebene 2
10
62.723800
20
22.155100
11
60.931690
21
25.813990
0
LINE
8
Ebene 2
10
60.931690
20
25.813990
11
64.665300
21
33.729100
0
LINE
8
Ebene 2
10
73.476500
20
33.654500
11
78.778200
21
33.654500
0
LINE
8
Ebene 2
10
78.778200
20
33.654500
11
80.271630
21
30.368970
0
LINE
8
Ebene 2
10
80.271630
20
30.368970
11
80.271600
21
28.726200
0
LINE
8
Ebene 2
10
80.271600
20
28.726200
11
77.060700
21
22.229800
0
LINE
8
Ebene 2
10
77.060700
20
22.229800
11
71.684400
21
22.229800
0
LINE
8
Ebene 2
10
71.684400
20
22.229800
11
69.817620
21
25.664680
0
LINE
8
Ebene 2
10
69.817620
20
25.664680
11
73.476500
21
33.654500
0
LINE
8
Ebene 2
10
75.268600
20
29.846200
11
77.060700
21
29.846200
0
LINE
8
Ebene 2
10
75.268600
20
26.038000
11
78.927500
21
26.038000
0
LINE
8
Ebene 2
10
71.759100
20
29.846200
11
66.382700
21
29.846200
0
LINE
8
Ebene 2
10
66.382700
20
29.846200
11
65.393307
21
27.904750
0
LINE
8
Ebene 2
10
65.393307
20
27.904750
11
64.515920
21
25.963300
0
LINE
8
Ebene 2
10
64.515920
20
25.963300
11
69.951990
21
25.963300
0
LINE
8
Ebene 2
10
69.951990
20
25.963300
11
71.759030
21
29.846200
0
LINE
8
Ebene 2
10
61.827800
20
36.626400
11
61.827800
21
34.535600
0
LINE
8
Ebene 2
10
61.827800
20
34.535600
11
64.575700
21
34.535600
0
LINE
8
Ebene 2
10
64.575700
20
34.535600
11
64.575700
21
36.626400
0
LINE
8
Ebene 2
10
64.575700
20
36.626400
11
61.827800
21
36.626400
 0 
ENDSEC
 0 
EOF